<?xml version="1.0" encoding="UTF-8"?>
<svg xmlns="http://www.w3.org/2000/svg" xmlns:xlink="http://www.w3.org/1999/xlink" width="192pt" height="192pt" viewBox="0 0 192 192" version="1.1">
<g id="surface2251778">
<path style=" stroke:none;fill-rule:nonzero;fill:rgb(0%,0%,0%);fill-opacity:1;" d="M 96 96.960938 C 95.46875 96.960938 95.039062 96.53125 95.039062 96 C 95.039062 95.46875 95.46875 95.039062 96 95.039062 C 96.53125 95.039062 96.960938 95.46875 96.960938 96 C 96.960938 96.53125 96.53125 96.960938 96 96.960938 Z M 96 96.960938 "/>
<path style=" stroke:none;fill-rule:nonzero;fill:rgb(0%,0%,0%);fill-opacity:1;" d="M 13.921875 32.160156 C 10.632812 32.113281 7.570312 33.839844 5.914062 36.683594 C 4.253906 39.523438 4.253906 43.035156 5.914062 45.878906 C 7.570312 48.71875 10.632812 50.445312 13.921875 50.398438 L 178.078125 50.398438 C 181.367188 50.445312 184.429688 48.71875 186.085938 45.878906 C 187.746094 43.035156 187.746094 39.523438 186.085938 36.683594 C 184.429688 33.839844 181.367188 32.113281 178.078125 32.160156 Z M 13.921875 86.878906 C 10.632812 86.832031 7.570312 88.5625 5.914062 91.402344 C 4.253906 94.242188 4.253906 97.757812 5.914062 100.597656 C 7.570312 103.4375 10.632812 105.167969 13.921875 105.121094 L 178.078125 105.121094 C 181.367188 105.167969 184.429688 103.4375 186.085938 100.597656 C 187.746094 97.757812 187.746094 94.242188 186.085938 91.402344 C 184.429688 88.5625 181.367188 86.832031 178.078125 86.878906 Z M 13.921875 141.601562 C 10.632812 141.554688 7.570312 143.28125 5.914062 146.121094 C 4.253906 148.964844 4.253906 152.476562 5.914062 155.316406 C 7.570312 158.160156 10.632812 159.886719 13.921875 159.839844 L 178.078125 159.839844 C 181.367188 159.886719 184.429688 158.160156 186.085938 155.316406 C 187.746094 152.476562 187.746094 148.964844 186.085938 146.121094 C 184.429688 143.28125 181.367188 141.554688 178.078125 141.601562 Z M 13.921875 141.601562 "/>
</g>
</svg>
