<?xml version="1.0" encoding="UTF-8"?>
<svg xmlns="http://www.w3.org/2000/svg" xmlns:xlink="http://www.w3.org/1999/xlink" width="24pt" height="24pt" viewBox="0 0 24 24" version="1.1">
<g id="surface3890590">
<path style=" stroke:none;fill-rule:nonzero;fill:rgb(0%,0%,0%);fill-opacity:1;" d="M 15.992188 1.992188 C 15.582031 1.992188 15.21875 2.238281 15.0625 2.613281 C 14.910156 2.992188 15 3.421875 15.292969 3.707031 L 17.585938 6 L 17 6 C 10.9375 6 6 10.9375 6 17 C 5.996094 17.359375 6.183594 17.695312 6.496094 17.878906 C 6.808594 18.058594 7.191406 18.058594 7.503906 17.878906 C 7.816406 17.695312 8.003906 17.359375 8 17 C 8 12.015625 12.015625 8 17 8 L 17.585938 8 L 15.292969 10.292969 C 15.03125 10.542969 14.925781 10.917969 15.019531 11.265625 C 15.109375 11.617188 15.382812 11.890625 15.734375 11.980469 C 16.082031 12.074219 16.457031 11.96875 16.707031 11.707031 L 20.707031 7.707031 C 21.097656 7.316406 21.097656 6.683594 20.707031 6.292969 L 16.707031 2.292969 C 16.519531 2.097656 16.261719 1.992188 15.992188 1.988281 Z M 2.984375 7.984375 C 2.433594 7.996094 1.992188 8.449219 2 9 L 2 19 C 2 20.644531 3.355469 22 5 22 L 19 22 C 20.644531 22 22 20.644531 22 19 L 22 18 C 22.003906 17.640625 21.816406 17.304688 21.503906 17.121094 C 21.191406 16.941406 20.808594 16.941406 20.496094 17.121094 C 20.183594 17.304688 19.996094 17.640625 20 18 L 20 19 C 20 19.566406 19.566406 20 19 20 L 5 20 C 4.433594 20 4 19.566406 4 19 L 4 9 C 4.003906 8.730469 3.898438 8.46875 3.707031 8.277344 C 3.515625 8.085938 3.253906 7.980469 2.984375 7.984375 Z M 2.984375 7.984375 "/>
</g>
</svg>
